# xmcd
#
# Track frame offsets:
#	150
#	6815
#	23990
#	49152
#	67340
#	90397
#	112252
#	140765
#	164660
#	186507
#	203340
#	218130
#
# Disc length: 2993 seconds
#
# Revision: 1
# Processed by: cddbd v1.5.2PL0 Copyright (c) Steve Scherf et al.
# Submitted via: EZCDAudioConverter 8.0.2.1
#
DISCID=b50baf0c
DTITLE=Various Artist - Một Thời Để Yêu
DYEAR=1990
DGENRE=Easy Listening
TTITLE0=Trung Tâm Nguồn Sống, Phòng Trà Ca Nhạc Caravellle - Một Thời Để Yêu -
TTITLE0=Khúc Mở Đầu
TTITLE1=Carol Kim - Thú yêu thương
TTITLE2=Duy Quang, Sơn Tuyền - lãng du
TTITLE3=Lynda Trang Đài - Những mùa nắng đẹp
TTITLE4=Tuấn Anh - Mái nhà yêu dấu
TTITLE5=Cong Thanh - Em đi
TTITLE6=Sơn Tuyền - Mối tình đầu
TTITLE7=Carol Kim - Anh không hiểu em
TTITLE8=Lynda, Kim Long - Một Thời Để Yêu
TTITLE9=Cong Thanh - Delilah
TTITLE10=Nhạc Hòa Tấu Bầu, Tranh, Sáo - Chuyện tình
TTITLE11=Trung Tâm Nguồn Sống, Phòng Trà Ca Nhạc Caravellle - Một Thời Để Yêu 
TTITLE11=Kết Luận
EXTD=
EXTT0=
EXTT1=
EXTT2=
EXTT3=
EXTT4=
EXTT5=
EXTT6=
EXTT7=
EXTT8=
EXTT9=
EXTT10=
EXTT11=
PLAYORDER=
